<svg xmlns="http://www.w3.org/2000/svg" version="1.0" width="535.000000pt" height="599.000000pt" viewBox="0 0 535.000000 599.000000" preserveAspectRatio="xMidYMid meet">

<g transform="translate(0.000000,599.000000) scale(0.100000,-0.100000)" fill="#fefefe" stroke="none">
<path d="M2975 5710 c-104 -17 -193 -82 -244 -177 l-26 -48 -80 -2 c-158 -5 -465 -40 -493 -57 -4 -2 -52 -16 -107 -31 -237 -62 -544 -205 -695 -322 -8 -6 -46 -35 -85 -64 -165 -125 -330 -321 -457 -544 -118 -206 -191 -395 -263 -679 l-33 -128 -63 -34 c-77 -42 -114 -76 -159 -151 -34 -56 -35 -60 -35 -163 0 -84 4 -113 20 -145 30 -62 132 -158 190 -180 59 -22 61 -25 70 -84 13 -91 68 -274 125 -416 98 -249 278 -510 500 -729 44 -44 80 -81 80 -83 0 -5 -71 -156 -206 -434 -68 -140 -124 -258 -124 -262 0 -8 67 18 460 175 179 72 346 138 372 149 l47 18 63 -32 63 -32 3 -567 c1 -409 5 -568 13 -568 6 0 56 39 111 88 55 48 132 113 172 146 39 32 125 106 191 165 66 58 187 164 270 235 82 72 190 165 239 209 69 60 95 77 110 72 107 -30 147 -37 202 -32 92 7 173 48 239 120 30 33 55 63 55 68 0 4 5 20 12 36 6 15 12 30 13 33 1 3 5 24 10 47 6 34 13 44 39 54 64 25 284 152 368 212 225 161 456 417 578 642 18 33 37 65 41 71 5 6 6 14 2 17 -3 4 -2 7 4 7 11 0 37 57 34 73 0 4 4 7 10 7 6 0 9 7 5 15 -3 8 -2 15 3 15 19 0 117 262 105 281 -3 5 0 9 6 9 7 0 10 6 7 14 -3 8 -3 17 1 20 7 8 14 41 16 74 1 12 5 22 10 22 4 0 6 7 3 15 -4 8 -2 17 2 20 5 3 8 18 7 35 -1 16 1 30 5 30 4 0 9 8 11 18 3 10 26 24 56 35 96 33 200 153 205 237 1 14 6 28 11 32 6 4 5 12 -3 21 -9 12 -9 16 1 19 10 4 10 8 -1 21 -9 12 -10 17 -2 17 8 0 9 5 2 19 -6 10 -8 21 -5 24 3 3 0 16 -7 29 -7 12 -13 31 -14 41 -1 9 -11 28 -23 40 -12 13 -22 28 -22 34 0 18 -57 61 -124 95 -67 34 -86 53 -79 79 3 9 0 20 -6 23 -5 4 -8 13 -4 21 3 9 0 21 -6 29 -6 7 -8 16 -5 19 4 3 3 14 -1 24 -8 19 -11 32 -18 75 -2 15 -9 34 -16 41 -6 8 -8 16 -5 20 3 3 0 16 -7 29 -7 12 -12 30 -11 39 2 9 -4 22 -13 29 -8 7 -12 16 -9 21 3 5 -1 19 -8 31 -6 13 -13 32 -15 42 -2 11 -9 26 -15 34 -7 8 -13 21 -14 29 -1 8 -10 26 -20 41 -10 15 -20 36 -21 46 -2 11 -10 27 -17 35 -8 9 -17 26 -20 38 -4 12 -17 34 -29 49 -12 15 -22 34 -23 41 -1 8 -15 31 -31 51 -15 20 -28 41 -28 47 0 5 -8 11 -18 13 -12 2 -62 -38 -146 -117 -71 -67 -132 -121 -137 -121 -5 0 -32 23 -61 52 l-53 52 -51 -18 c-58 -21 -137 -18 -188 9 -32 16 -108 112 -103 129 2 5 0 16 -4 25 -10 24 -11 61 -1 61 5 0 7 7 3 15 -3 8 -1 15 4 15 6 0 10 6 10 14 0 20 38 64 83 97 32 23 50 29 94 29 98 0 168 -46 208 -135 31 -69 49 -83 80 -64 12 8 82 69 155 136 l131 123 29 -15 c44 -23 109 -29 160 -15 53 14 146 100 136 125 -3 8 -1 15 5 15 6 0 9 6 6 14 -3 8 -1 17 6 19 9 3 9 8 -1 19 -10 13 -10 17 0 21 10 3 10 7 1 17 -6 7 -9 19 -6 27 3 7 -3 23 -13 34 -10 11 -19 27 -20 35 -4 25 -23 42 -77 69 -58 29 -93 31 -163 10 -86 -25 -144 -107 -144 -202 0 -45 -3 -49 -75 -120 -42 -40 -81 -73 -88 -73 -7 0 -31 18 -52 41 -46 48 -191 165 -285 231 -80 56 -285 166 -376 202 -38 15 -79 34 -91 41 -23 16 -57 75 -42 75 5 0 4 10 -3 23 -6 12 -12 30 -13 40 -1 9 -15 31 -30 47 -16 17 -25 30 -20 30 5 0 -4 14 -20 30 -16 17 -35 30 -42 30 -7 0 -13 4 -13 9 0 13 -119 59 -165 64 -22 2 -58 1 -80 -3z m134 -159 c156 -80 160 -288 6 -360 -79 -37 -155 -24 -218 36 -51 50 -71 89 -70 141 1 23 2 44 3 47 2 3 3 8 4 13 10 45 72 109 126 131 41 16 108 12 149 -8z m-662 -460 c24 -11 55 -37 72 -61 30 -42 33 -49 45 -102 l6 -28 266 0 265 0 52 -47 c29 -26 161 -155 294 -287 132 -131 249 -243 258 -249 23 -12 65 -105 65 -143 0 -157 -171 -258 -304 -180 -45 26 -132 128 -115 134 5 2 6 8 3 14 -8 13 -12 67 -5 70 3 2 16 24 28 51 l23 47 -188 185 -187 185 -231 0 c-229 0 -232 0 -267 25 l-37 24 -42 -19 c-56 -25 -124 -25 -189 0 l-52 21 -50 -26 c-47 -25 -57 -26 -167 -23 -110 3 -119 5 -153 31 -23 17 -34 33 -30 42 3 9 0 22 -7 30 -10 12 -10 15 0 15 7 0 10 7 6 15 -3 8 -1 15 4 15 5 0 12 9 15 21 12 36 63 49 199 49 114 0 125 2 131 19 3 10 5 23 4 27 -1 5 0 12 1 17 1 4 3 11 4 16 3 21 70 93 104 111 48 25 124 25 179 1z m-1009 -217 c73 -30 132 -110 132 -179 0 -34 13 -50 203 -235 l202 -200 488 0 c535 0 531 0 562 -60 26 -50 20 -97 -19 -136 l-34 -34 -538 0 -538 0 -223 223 -223 222 -80 6 c-97 8 -143 34 -186 106 -51 85 -33 175 52 255 16 15 40 31 54 37 38 15 106 13 148 -5z m-88 -686 c19 -13 37 -36 42 -53 11 -42 9 -633 -2 -640 -5 -3 -24 2 -41 11 -50 25 -147 16 -193 -19 -53 -41 -80 -99 -81 -174 0 -53 4 -67 31 -104 58 -80 149 -108 242 -75 22 8 43 12 46 9 3 -4 6 -121 6 -262 l0 -255 197 -198 197 -198 46 0 c194 -1 283 -248 133 -368 -88 -70 -179 -65 -264 15 -27 25 -49 51 -49 57 0 6 -7 23 -14 39 -8 15 -11 27 -6 27 4 0 7 19 6 43 -1 41 -6 47 -224 266 -123 123 -228 234 -234 245 -8 14 -11 89 -11 214 0 165 -2 192 -15 192 -51 0 -177 106 -223 188 -33 59 -56 72 -128 72 -44 0 -52 -4 -86 -41 -44 -50 -88 -69 -155 -69 -47 0 -142 37 -140 54 0 3 -16 29 -35 56 -19 28 -30 50 -25 50 7 0 8 6 1 17 -5 11 -5 26 0 42 6 13 8 30 5 38 -3 7 -2 13 2 13 4 0 16 17 27 37 31 56 96 93 166 93 71 0 102 -11 151 -55 36 -33 42 -35 107 -35 64 0 69 2 75 23 21 86 128 200 217 234 l54 20 1 224 0 224 31 33 c38 40 92 44 143 10z m2690 -398 c153 -51 302 -172 365 -296 36 -70 40 -74 86 -74 28 0 48 9 85 40 63 52 122 65 195 44 119 -36 181 -169 130 -279 -36 -79 -95 -115 -186 -115 -70 0 -96 11 -143 60 -22 22 -44 40 -49 40 -6 0 -13 -46 -16 -102 -16 -274 -178 -515 -408 -605 -37 -15 -94 -18 -364 -23 l-320 -5 -5 -242 c-4 -215 -7 -244 -23 -260 -16 -17 -51 -18 -452 -21 l-435 -3 0 -293 c0 -261 2 -295 17 -307 25 -22 63 -110 63 -150 0 -53 -44 -132 -90 -163 -86 -56 -184 -44 -260 34 -26 26 -47 55 -48 64 -11 109 4 161 59 211 22 19 37 40 34 44 -3 5 1 11 7 14 10 3 10 7 0 19 -10 13 -10 17 0 20 11 4 11 8 0 20 -10 13 -10 17 0 20 11 4 11 8 0 20 -10 13 -10 17 0 20 11 4 11 8 0 20 -10 13 -10 17 0 20 11 4 11 8 0 20 -10 13 -10 17 0 20 11 4 11 8 0 20 -10 13 -10 17 0 20 11 4 11 8 0 20 -10 13 -10 17 0 20 11 4 11 8 0 20 -10 13 -10 17 0 20 11 4 11 8 0 20 -10 13 -10 17 0 20 11 4 11 8 0 20 -10 13 -10 17 0 20 11 4 11 8 0 20 -10 13 -10 17 0 20 11 4 11 8 0 20 -10 13 -10 17 0 20 11 4 11 8 0 20 -10 13 -10 17 0 20 11 4 11 8 0 20 -10 13 -10 17 0 20 11 4 11 8 0 20 -10 13 -10 17 0 20 11 4 11 8 0 20 -10 13 -10 17 0 20 10 4 10 8 -1 21 -10 12 -10 17 -1 17 6 0 10 6 7 13 -2 6 11 27 29 45 l33 32 407 0 c349 0 405 2 401 14 -3 8 -1 17 6 19 9 3 9 8 -1 19 -10 13 -10 17 0 20 11 4 11 8 0 20 -10 13 -10 17 0 20 11 4 11 8 0 20 -10 13 -10 17 0 20 11 4 11 8 0 20 -10 13 -10 17 0 20 10 4 10 8 -1 21 -8 10 -9 17 -3 17 6 0 10 17 9 38 l-2 37 -535 5 c-597 6 -576 3 -705 81 -58 34 -215 183 -215 203 0 6 -10 27 -22 46 -12 19 -23 41 -24 48 -1 8 -6 21 -10 30 -4 9 -8 23 -10 30 -1 8 -6 21 -10 30 -4 9 -6 24 -5 34 1 9 -3 19 -8 22 -6 4 -8 13 -4 22 3 8 -2 23 -11 33 -13 15 -14 20 -4 23 11 4 11 8 0 20 -10 13 -10 17 0 20 11 4 11 8 0 20 -10 13 -10 17 0 20 11 4 11 8 0 20 -7 9 -9 18 -3 20 5 1 12 21 15 42 13 79 68 221 112 287 106 161 282 265 469 279 44 3 463 5 930 4 845 -2 850 -2 915 -24z m-92 -1589 c71 -37 112 -104 112 -185 0 -57 -11 -85 -52 -131 -61 -71 -146 -92 -223 -56 -48 21 -127 90 -119 103 3 5 -1 20 -10 33 -12 17 -12 25 -3 28 9 3 9 8 -2 20 -10 13 -10 17 -1 17 7 0 10 6 7 14 -3 7 1 25 8 40 8 14 11 26 9 26 -3 0 14 20 38 45 71 75 150 90 236 46z m-658 -697 c155 -104 97 -339 -90 -361 -38 -4 -59 0 -103 20 -31 14 -62 35 -69 46 -7 12 -19 21 -26 21 -7 0 -10 4 -7 10 3 5 0 20 -6 32 -14 26 -18 108 -6 108 5 0 7 6 5 12 -5 14 -4 14 44 72 68 81 173 98 258 40z" fill="#fefefe"/>
<path d="M2203 3457 c-58 -16 -128 -77 -160 -140 -37 -69 -40 -190 -6 -252 83 -155 281 -193 420 -79 23 19 43 42 43 50 0 8 4 14 9 14 25 0 63 171 41 185 -6 4 -8 11 -4 16 3 5 -2 22 -12 37 -10 15 -19 33 -20 41 -4 23 -76 90 -119 111 -52 25 -139 33 -192 17z" fill="#fefefe"/>
<path d="M3769 3456 c-161 -43 -247 -259 -159 -401 79 -127 227 -170 359 -104 53 27 111 80 111 103 0 4 7 15 16 23 8 9 13 24 11 34 -3 11 -1 19 3 19 14 0 6 136 -10 155 -8 9 -15 24 -16 31 -4 25 -49 78 -90 106 -65 45 -142 57 -225 34z" fill="#fefefe"/>
</g>
</svg>